<svg id="visual" viewBox="0 0 900 600" width="900" height="600" xmlns="http://www.w3.org/2000/svg" xmlns:xlink="http://www.w3.org/1999/xlink" version="1.1"><path d="M0 73L13.7 68C27.3 63 54.7 53 82 56C109.3 59 136.7 75 163.8 80C191 85 218 79 245.2 84C272.3 89 299.7 105 327 111C354.3 117 381.7 113 409 112C436.3 111 463.7 113 491 113C518.3 113 545.7 111 573 103C600.3 95 627.7 81 654.8 83C682 85 709 103 736.2 105C763.3 107 790.7 93 818 83C845.3 73 872.7 67 886.3 64L900 61L900 0L886.3 0C872.7 0 845.3 0 818 0C790.7 0 763.3 0 736.2 0C709 0 682 0 654.8 0C627.7 0 600.3 0 573 0C545.7 0 518.3 0 491 0C463.7 0 436.3 0 409 0C381.7 0 354.3 0 327 0C299.7 0 272.3 0 245.2 0C218 0 191 0 163.8 0C136.7 0 109.3 0 82 0C54.7 0 27.3 0 13.7 0L0 0Z" fill="#36b796"></path><path d="M0 175L13.7 176C27.3 177 54.7 179 82 187C109.3 195 136.7 209 163.8 211C191 213 218 203 245.2 205C272.3 207 299.7 221 327 230C354.3 239 381.7 243 409 259C436.3 275 463.7 303 491 309C518.3 315 545.7 299 573 274C600.3 249 627.7 215 654.8 231C682 247 709 313 736.2 326C763.3 339 790.7 299 818 294C845.3 289 872.7 319 886.3 334L900 349L900 59L886.3 62C872.7 65 845.3 71 818 81C790.7 91 763.3 105 736.2 103C709 101 682 83 654.8 81C627.7 79 600.3 93 573 101C545.7 109 518.3 111 491 111C463.7 111 436.3 109 409 110C381.7 111 354.3 115 327 109C299.7 103 272.3 87 245.2 82C218 77 191 83 163.8 78C136.7 73 109.3 57 82 54C54.7 51 27.3 61 13.7 66L0 71Z" fill="#21a584"></path><path d="M0 331L13.7 330C27.3 329 54.7 327 82 333C109.3 339 136.7 353 163.8 341C191 329 218 291 245.2 288C272.3 285 299.7 317 327 328C354.3 339 381.7 329 409 337C436.3 345 463.7 371 491 374C518.3 377 545.7 357 573 349C600.3 341 627.7 345 654.8 366C682 387 709 425 736.2 429C763.3 433 790.7 403 818 398C845.3 393 872.7 413 886.3 423L900 433L900 347L886.3 332C872.7 317 845.3 287 818 292C790.7 297 763.3 337 736.2 324C709 311 682 245 654.8 229C627.7 213 600.3 247 573 272C545.7 297 518.3 313 491 307C463.7 301 436.3 273 409 257C381.7 241 354.3 237 327 228C299.7 219 272.3 205 245.2 203C218 201 191 211 163.8 209C136.7 207 109.3 193 82 185C54.7 177 27.3 175 13.7 174L0 173Z" fill="#009473"></path><path d="M0 505L13.7 511C27.3 517 54.7 529 82 528C109.3 527 136.7 513 163.8 512C191 511 218 523 245.2 529C272.3 535 299.7 535 327 534C354.3 533 381.7 531 409 527C436.3 523 463.7 517 491 513C518.3 509 545.7 507 573 512C600.3 517 627.7 529 654.8 539C682 549 709 557 736.2 554C763.3 551 790.7 537 818 536C845.3 535 872.7 547 886.3 553L900 559L900 431L886.3 421C872.7 411 845.3 391 818 396C790.7 401 763.3 431 736.2 427C709 423 682 385 654.8 364C627.7 343 600.3 339 573 347C545.7 355 518.3 375 491 372C463.7 369 436.3 343 409 335C381.7 327 354.3 337 327 326C299.7 315 272.3 283 245.2 286C218 289 191 327 163.8 339C136.7 351 109.3 337 82 331C54.7 325 27.3 327 13.7 328L0 329Z" fill="#008064"></path><path d="M0 601L13.7 601C27.3 601 54.7 601 82 601C109.3 601 136.7 601 163.8 601C191 601 218 601 245.2 601C272.3 601 299.7 601 327 601C354.3 601 381.7 601 409 601C436.3 601 463.7 601 491 601C518.3 601 545.7 601 573 601C600.3 601 627.7 601 654.8 601C682 601 709 601 736.2 601C763.3 601 790.7 601 818 601C845.3 601 872.7 601 886.3 601L900 601L900 557L886.3 551C872.7 545 845.3 533 818 534C790.7 535 763.3 549 736.2 552C709 555 682 547 654.8 537C627.7 527 600.3 515 573 510C545.7 505 518.3 507 491 511C463.7 515 436.3 521 409 525C381.7 529 354.3 531 327 532C299.7 533 272.3 533 245.2 527C218 521 191 509 163.8 510C136.7 511 109.3 525 82 526C54.7 527 27.3 515 13.7 509L0 503Z" fill="#006c55"></path></svg>